<?xml version="1.0" standalone="no"?><!DOCTYPE svg PUBLIC "-//W3C//DTD SVG 1.1//EN" "http://www.w3.org/Graphics/SVG/1.1/DTD/svg11.dtd"><svg t="1587894022319" class="icon" viewBox="0 0 1024 1024" version="1.1" xmlns="http://www.w3.org/2000/svg" p-id="14158" width="200" height="200" xmlns:xlink="http://www.w3.org/1999/xlink"><defs><style type="text/css">@font-face { font-family: element-icons; src: url("chrome-extension://moombeodfomdpjnpocobemoiaemednkg/fonts/element-icons.woff") format("woff"), url("chrome-extension://moombeodfomdpjnpocobemoiaemednkg/fonts/element-icons.ttf ") format("truetype"); }
</style></defs><path d="M726.010677 702.292997l-95.531773 0 0 95.550193 95.531773 0L726.010677 702.292997zM726.010677 550.141692l-95.531773 0 0 95.551216 95.531773 0L726.010677 550.141692zM555.160497 239.615333l-95.550193 0L459.610304 335.166549l95.550193 0L555.160497 239.615333zM726.010677 394.4477l-95.531773 0 0 95.532797 95.531773 0L726.010677 394.4477zM726.010677 239.615333l-95.531773 0L630.478903 335.166549l95.531773 0L726.010677 239.615333zM555.160497 394.4477l-95.550193 0 0 95.532797 95.550193 0L555.160497 394.4477zM384.308271 550.141692l-95.551216 0 0 95.551216 95.551216 0L384.308271 550.141692zM852.775802 892.775306 852.775802 149.084457l36.579103 0 0-68.152193L134.766868 80.932264l0 68.152193 27.225061 0 0 743.69085L64.363402 892.775306l0 50.54928 895.392924 0 0-50.54928L852.775802 892.775306zM802.225499 890.574175 564.150242 890.574175 564.150242 779.442098c0-30.921243-25.64917-56.078203-57.177234-56.078203-28.865421 0-52.8026 21.098527-56.626695 48.403406l-0.550539 0 0 118.807896L212.543256 890.575198 212.543256 163.385161l589.682243 0L802.225499 890.574175zM384.308271 702.292997l-95.551216 0 0 95.550193 95.551216 0L384.308271 702.292997zM384.308271 394.4477l-95.551216 0 0 95.532797 95.551216 0L384.308271 394.4477zM555.160497 550.141692l-95.550193 0 0 95.551216 95.550193 0L555.160497 550.141692zM384.308271 239.615333l-95.551216 0L288.757055 335.166549l95.551216 0L384.308271 239.615333z" p-id="14159" fill="#bfcbd9"></path></svg>