<svg t="1588945350557" class="icon" viewBox="0 0 1024 1024" version="1.1" xmlns="http://www.w3.org/2000/svg" p-id="9913" width="400" height="400"><path d="M1013.76 512c-6.826667-3.413333-13.653333-3.413333-17.066667 3.413333L819.2 662.186667v-133.12c0-6.826667-3.413333-13.653333-10.24-13.653334-6.826667-3.413333-13.653333-3.413333-17.066667 0L580.266667 665.6v-136.533333c0-6.826667-3.413333-13.653333-10.24-17.066667-6.826667-3.413333-13.653333 0-17.066667 3.413333l-126.293333 116.053334c-3.413333 3.413333-6.826667 10.24-6.826667 13.653333l23.893333 358.4v3.413333c0 10.24 6.826667 17.066667 17.066667 17.066667h546.133333c10.24 0 17.066667-6.826667 17.066667-17.066667v-477.866666c0-6.826667-3.413333-13.653333-10.24-17.066667zM354.986667 204.8H54.613333l-10.24 136.533333h320.853334zM365.226667 375.466667H44.373333L34.133333 512h341.333334zM378.88 546.133333H30.72l-6.826667 136.533334h361.813334zM389.12 716.8H20.48L0 1006.933333c0 3.413333 0 10.24 3.413333 13.653334s10.24 3.413333 13.653334 3.413333h375.466666c10.24 0 17.066667-6.826667 17.066667-17.066667v-6.826666l-20.48-283.306667zM351.573333 170.666667L341.333333 17.066667c0-10.24-6.826667-17.066667-17.066666-17.066667h-238.933334c-10.24 0-17.066667 6.826667-17.066666 17.066667L58.026667 170.666667h293.546666z" p-id="9914"></path></svg>