<?xml version="1.0" standalone="no"?><!DOCTYPE svg PUBLIC "-//W3C//DTD SVG 1.1//EN" "http://www.w3.org/Graphics/SVG/1.1/DTD/svg11.dtd"><svg t="1587893877991" class="icon" viewBox="0 0 1024 1024" version="1.1" xmlns="http://www.w3.org/2000/svg" p-id="12288" width="400" height="400" xmlns:xlink="http://www.w3.org/1999/xlink"><defs><style type="text/css">@font-face { font-family: element-icons; src: url("chrome-extension://moombeodfomdpjnpocobemoiaemednkg/fonts/element-icons.woff") format("woff"), url("chrome-extension://moombeodfomdpjnpocobemoiaemednkg/fonts/element-icons.ttf ") format("truetype"); }
</style></defs><path d="M911.6 496v308.24c0 11.92 0.56 23.92 0 35.76-2.32 49.92-39.28 85.52-88.8 87.6-31.6 1.28-63.44 0-95.04 0H342.4c-41.28 0-82.56 0.8-123.84 0-59.68-1.12-97.12-38.8-98.16-98.64-2-113.6 0-227.36 0-340.96 0-26.24-40.8-26.32-40.8 0v334.16c0 66.16 31.2 128.16 101.2 143.36 32.8 7.12 70.24 2.96 103.44 2.96h412c41.2 0 82.48 1.04 123.68 0 73.6-1.84 129.52-54.32 132.48-128.64 4.48-114.24 0-229.44 0-343.76 0-26.32-40.8-26.4-40.8-0.08zM522.32 412H154.88c-37.12 0-73.68-16.72-97.76-44.8-20.32-23.6-29.12-52.4-24.8-81.04 8.16-54.08 37.6-91.04 50.16-106.8 1.44-1.76 2.64-3.28 3.52-4.48C86.72 173.84 171.12 64 243.52 64h272.72v40H243.52c-42.16 0-110 73.84-125.44 94.72-1.12 1.52-2.56 3.36-4.4 5.6-11.44 14.4-35.36 44.32-41.84 87.84-3.28 21.76 6.64 38.64 15.6 48.96 16.4 19.04 42.24 30.88 67.44 30.88H522.4v40z" fill="#bfcbd9" p-id="12289"></path><path d="M859.84 412H492.4v-40h367.52c25.2 0 51.12-11.84 67.44-30.88 8.88-10.32 18.88-27.28 15.6-48.96-6.56-43.44-30.4-73.44-41.84-87.84-1.76-2.24-3.28-4.16-4.4-5.6C881.2 177.84 813.44 104 771.28 104h-272.8V64H771.2c72.4 0 156.8 109.84 157.6 110.96 0.88 1.2 2.08 2.64 3.52 4.48 12.56 15.76 42 52.72 50.16 106.8 4.32 28.64-4.48 57.44-24.8 81.04-24.16 28-60.72 44.72-97.84 44.72z" fill="#bfcbd9" p-id="12290"></path><path d="M644 940h-272V643.76c0-39.6 32.16-71.76 71.76-71.76h128.48c39.6 0 71.76 32.16 71.76 71.76v296.24z" fill="#bfcbd9" p-id="12291"></path><path d="M664 960H352V643.76C352 593.2 393.2 552 443.76 552h128.48C622.8 552 664 593.2 664 643.76V960z m-272-40h232V643.76C624 615.2 600.8 592 572.24 592H443.76C415.2 592 392 615.2 392 643.76V920z" fill="#bfcbd9" p-id="12292"></path></svg>