<svg t="1593845606115" class="icon" viewBox="0 0 1024 1024" version="1.1" xmlns="http://www.w3.org/2000/svg" p-id="2935" width="400" height="400"><path d="M793.206285 1024H230.793977A113.165128 113.165128 0 0 1 118.153977 910.309744V170.666667a113.165128 113.165128 0 0 1 112.64-113.690257h112.377436v170.666667h337.657436v-170.666667h112.64A113.165128 113.165128 0 0 1 905.846285 170.666667v739.643077A113.165128 113.165128 0 0 1 793.206285 1024zM708.923208 398.309744h-393.846154a28.356923 28.356923 0 1 0 0 56.713846h393.846154a28.356923 28.356923 0 1 0 0-56.713846z m0 170.666666h-393.846154a28.356923 28.356923 0 1 0 0 56.713846h393.846154a28.356923 28.356923 0 1 0 0-56.713846z m0 170.666667h-393.846154a28.356923 28.356923 0 1 0 0 56.713846h393.846154a28.356923 28.356923 0 1 0 0-56.713846zM568.188849 170.666667h-112.377436a56.713846 56.713846 0 0 1-56.188718-56.976411V56.97641A56.451282 56.451282 0 0 1 455.548849 0h112.64a56.713846 56.713846 0 0 1 56.188718 56.97641v56.713846a56.451282 56.451282 0 0 1-55.926154 56.976411z" p-id="2936"></path></svg>