<svg t="1588944987806" class="icon" viewBox="0 0 1024 1024" version="1.1" xmlns="http://www.w3.org/2000/svg" p-id="1238" width="128" height="128"><path d="M192.024003 1024a192.024003 192.024003 0 0 1-192.024003-192.024003v-384.048006a64.008001 64.008001 0 1 1 128.016002 0v384.048006a64.008001 64.008001 0 0 0 64.008001 64.008001h640.08001a64.008001 64.008001 0 0 0 64.008001-64.008001v-384.048006a64.008001 64.008001 0 1 1 128.016002 0v384.048006a192.344043 192.344043 0 0 1-192.024003 192.024003z m295.588949-324.904613a66.568321 66.568321 0 0 1-20.802601-13.825728l-192.024003-192.024003a64.008001 64.008001 0 0 1 90.507314-90.507314L448.056007 485.948744V64.200025a64.008001 64.008001 0 0 1 128.016002 0v421.684711l67.848481-68.040505a64.008001 64.008001 0 1 1 90.507313 90.507313L557.317665 685.525691a67.528441 67.528441 0 0 1-20.866609 13.825728 63.687961 63.687961 0 0 1-48.902112 0z" p-id="1239"></path></svg>